<?xml version="1.0" encoding="UTF-8" standalone="no"?>
<!-- Created with Inkscape (http://www.inkscape.org/) -->

<svg
   width="1404"
   height="1872"
   viewBox="0 0 371.47499 495.30001"
   version="1.1"
   id="svg5"
   inkscape:version="1.1 (c4e8f9ed74, 2021-05-24)"
   sodipodi:docname="lines_mini_heading.svg"
   inkscape:export-filename="/home/michael/dev/github/reSync/templates/lines_mini_heading.png"
   inkscape:export-xdpi="96"
   inkscape:export-ydpi="96"
   xmlns:inkscape="http://www.inkscape.org/namespaces/inkscape"
   xmlns:sodipodi="http://sodipodi.sourceforge.net/DTD/sodipodi-0.dtd"
   xmlns="http://www.w3.org/2000/svg"
   xmlns:svg="http://www.w3.org/2000/svg">
  <sodipodi:namedview
     id="namedview7"
     pagecolor="#ffffff"
     bordercolor="#666666"
     borderopacity="1.0"
     inkscape:pageshadow="2"
     inkscape:pageopacity="0"
     inkscape:pagecheckerboard="0"
     inkscape:document-units="px"
     showgrid="false"
     units="px"
     width="1404px"
     inkscape:zoom="0.74742565"
     inkscape:cx="689.70071"
     inkscape:cy="478.97741"
     inkscape:window-width="1392"
     inkscape:window-height="1031"
     inkscape:window-x="520"
     inkscape:window-y="26"
     inkscape:window-maximized="0"
     inkscape:current-layer="layer1"
     showguides="true"
     inkscape:guide-bbox="true" />
  <defs
     id="defs2" />
  <g
     inkscape:label="Layer 1"
     inkscape:groupmode="layer"
     id="layer1">
    <path
       style="fill:#999999;stroke:#999999;stroke-width:0.26458333;stroke-linecap:butt;stroke-linejoin:miter;stroke-opacity:1;stroke-miterlimit:4;stroke-dasharray:none"
       d="m 0.04866444,65.408919 c 97.62458856,0 372.05283556,0 372.05283556,0"
       id="path130" />
    <path
       style="fill:#999999;stroke:#999999;stroke-width:0.26458333;stroke-linecap:butt;stroke-linejoin:miter;stroke-opacity:1;stroke-miterlimit:4;stroke-dasharray:none"
       d="m 0.04866444,76.256829 c 97.62458856,0 372.05283556,0 372.05283556,0"
       id="path132" />
    <path
       style="fill:#999999;stroke:#999999;stroke-width:0.26458333;stroke-linecap:butt;stroke-linejoin:miter;stroke-opacity:1;stroke-miterlimit:4;stroke-dasharray:none"
       d="m 0.04866444,87.104749 c 97.62458856,0 372.05283556,0 372.05283556,0"
       id="path134" />
    <path
       style="fill:#999999;stroke:#999999;stroke-width:0.26458333;stroke-linecap:butt;stroke-linejoin:miter;stroke-opacity:1;stroke-miterlimit:4;stroke-dasharray:none"
       d="m 0.04866444,97.952659 c 97.62458856,0 372.05283556,0 372.05283556,0"
       id="path136" />
    <path
       style="fill:#999999;stroke:#999999;stroke-width:0.26458333;stroke-linecap:butt;stroke-linejoin:miter;stroke-opacity:1;stroke-miterlimit:4;stroke-dasharray:none"
       d="m 0.04866444,108.80058 c 97.62458856,0 372.05283556,0 372.05283556,0"
       id="path138" />
    <path
       style="fill:#999999;stroke:#999999;stroke-width:0.26458333;stroke-linecap:butt;stroke-linejoin:miter;stroke-opacity:1;stroke-miterlimit:4;stroke-dasharray:none"
       d="m 0.04866444,119.6485 c 97.62458856,0 372.05283556,0 372.05283556,0"
       id="path140" />
    <path
       style="fill:#999999;stroke:#999999;stroke-width:0.26458333;stroke-linecap:butt;stroke-linejoin:miter;stroke-opacity:1;stroke-miterlimit:4;stroke-dasharray:none"
       d="m 0.04866444,130.49641 c 97.62458856,0 372.05283556,0 372.05283556,0"
       id="path142" />
    <path
       style="fill:#999999;stroke:#999999;stroke-width:0.26458333;stroke-linecap:butt;stroke-linejoin:miter;stroke-opacity:1;stroke-miterlimit:4;stroke-dasharray:none"
       d="m 0.04866444,152.19225 c 97.62458856,0 372.05283556,0 372.05283556,0"
       id="path146" />
    <path
       style="fill:#999999;stroke:#999999;stroke-width:0.26458333;stroke-linecap:butt;stroke-linejoin:miter;stroke-opacity:1;stroke-miterlimit:4;stroke-dasharray:none"
       d="m 0.04866444,163.04016 c 97.62458856,0 372.05283556,0 372.05283556,0"
       id="path148" />
    <path
       style="fill:#999999;stroke:#999999;stroke-width:0.26458333;stroke-linecap:butt;stroke-linejoin:miter;stroke-opacity:1;stroke-miterlimit:4;stroke-dasharray:none"
       d="m 0.04866444,173.88808 c 97.62458856,0 372.05283556,0 372.05283556,0"
       id="path150" />
    <path
       style="fill:#999999;stroke:#999999;stroke-width:0.26458333;stroke-linecap:butt;stroke-linejoin:miter;stroke-opacity:1;stroke-miterlimit:4;stroke-dasharray:none"
       d="m 0.04866444,184.73599 c 97.62458856,0 372.05283556,0 372.05283556,0"
       id="path152" />
    <path
       style="fill:#999999;stroke:#999999;stroke-width:0.26458333;stroke-linecap:butt;stroke-linejoin:miter;stroke-opacity:1;stroke-miterlimit:4;stroke-dasharray:none"
       d="m 0.04866444,195.58391 c 97.62458856,0 372.05283556,0 372.05283556,0"
       id="path154" />
    <path
       style="fill:#999999;stroke:#999999;stroke-width:0.26458333;stroke-linecap:butt;stroke-linejoin:miter;stroke-opacity:1;stroke-miterlimit:4;stroke-dasharray:none"
       d="m 0.04866444,206.43183 c 97.62458856,0 372.05283556,0 372.05283556,0"
       id="path156" />
    <path
       style="fill:#999999;stroke:#999999;stroke-width:0.26458333;stroke-linecap:butt;stroke-linejoin:miter;stroke-opacity:1;stroke-miterlimit:4;stroke-dasharray:none"
       d="m 0.04866444,217.27974 c 97.62458856,0 372.05283556,0 372.05283556,0"
       id="path158" />
    <path
       style="fill:#999999;stroke:#999999;stroke-width:0.26458333;stroke-linecap:butt;stroke-linejoin:miter;stroke-opacity:1;stroke-miterlimit:4;stroke-dasharray:none"
       d="m 0.04866444,228.12766 c 97.62458856,0 372.05283556,0 372.05283556,0"
       id="path160" />
    <path
       style="fill:#999999;stroke:#999999;stroke-width:0.26458333;stroke-linecap:butt;stroke-linejoin:miter;stroke-opacity:1;stroke-miterlimit:4;stroke-dasharray:none"
       d="m 0.04866444,238.97558 c 97.62458856,0 372.05283556,0 372.05283556,0"
       id="path162" />
    <path
       style="fill:#999999;stroke:#999999;stroke-width:0.26458333;stroke-linecap:butt;stroke-linejoin:miter;stroke-opacity:1;stroke-miterlimit:4;stroke-dasharray:none"
       d="m 0.04866444,249.82349 c 97.62458856,0 372.05283556,0 372.05283556,0"
       id="path164" />
    <path
       style="fill:#999999;stroke:#999999;stroke-width:0.26458333;stroke-linecap:butt;stroke-linejoin:miter;stroke-opacity:1;stroke-miterlimit:4;stroke-dasharray:none"
       d="m 0.04866444,390.8464 c 97.62458856,0 372.05283556,0 372.05283556,0"
       id="path166" />
    <path
       style="fill:#999999;stroke:#999999;stroke-width:0.26458333;stroke-linecap:butt;stroke-linejoin:miter;stroke-opacity:1;stroke-miterlimit:4;stroke-dasharray:none"
       d="m 0.04866444,271.51932 c 97.62458856,0 372.05283556,0 372.05283556,0"
       id="path168" />
    <path
       style="fill:#999999;stroke:#999999;stroke-width:0.26458333;stroke-linecap:butt;stroke-linejoin:miter;stroke-opacity:1;stroke-miterlimit:4;stroke-dasharray:none"
       d="m 0.04866444,282.36724 c 97.62458856,0 372.05283556,0 372.05283556,0"
       id="path170" />
    <path
       style="fill:#999999;stroke:#999999;stroke-width:0.26458333;stroke-linecap:butt;stroke-linejoin:miter;stroke-opacity:1;stroke-miterlimit:4;stroke-dasharray:none"
       d="m 0.04866444,293.21516 c 97.62458856,0 372.05283556,0 372.05283556,0"
       id="path172" />
    <path
       style="fill:#999999;stroke:#999999;stroke-width:0.26458333;stroke-linecap:butt;stroke-linejoin:miter;stroke-opacity:1;stroke-miterlimit:4;stroke-dasharray:none"
       d="m 0.04866444,304.06307 c 97.62458856,0 372.05283556,0 372.05283556,0"
       id="path174" />
    <path
       style="fill:#999999;stroke:#999999;stroke-width:0.26458333;stroke-linecap:butt;stroke-linejoin:miter;stroke-opacity:1;stroke-miterlimit:4;stroke-dasharray:none"
       d="m 0.04866444,314.91099 c 97.62458856,0 372.05283556,0 372.05283556,0"
       id="path176" />
    <path
       style="fill:#999999;stroke:#999999;stroke-width:0.26458333;stroke-linecap:butt;stroke-linejoin:miter;stroke-opacity:1;stroke-miterlimit:4;stroke-dasharray:none"
       d="m 0.04866444,325.75891 c 97.62458856,0 372.05283556,0 372.05283556,0"
       id="path178" />
    <path
       style="fill:#999999;stroke:#999999;stroke-width:0.26458333;stroke-linecap:butt;stroke-linejoin:miter;stroke-opacity:1;stroke-miterlimit:4;stroke-dasharray:none"
       d="m 0.04866444,336.60682 c 97.62458856,0 372.05283556,0 372.05283556,0"
       id="path180" />
    <path
       style="fill:#999999;stroke:#999999;stroke-width:0.26458333;stroke-linecap:butt;stroke-linejoin:miter;stroke-opacity:1;stroke-miterlimit:4;stroke-dasharray:none"
       d="m 0.04866444,347.45474 c 97.62458856,0 372.05283556,0 372.05283556,0"
       id="path182" />
    <path
       style="fill:#999999;stroke:#999999;stroke-width:0.26458333;stroke-linecap:butt;stroke-linejoin:miter;stroke-opacity:1;stroke-miterlimit:4;stroke-dasharray:none"
       d="m 0.04866444,358.30266 c 97.62458856,0 372.05283556,0 372.05283556,0"
       id="path184" />
    <path
       style="fill:#999999;stroke:#999999;stroke-width:0.26458333;stroke-linecap:butt;stroke-linejoin:miter;stroke-opacity:1;stroke-miterlimit:4;stroke-dasharray:none"
       d="m 0.04866444,369.15057 c 97.62458856,0 372.05283556,0 372.05283556,0"
       id="path186" />
    <path
       style="fill:#999999;stroke:#999999;stroke-width:0.26458333;stroke-linecap:butt;stroke-linejoin:miter;stroke-opacity:1;stroke-miterlimit:4;stroke-dasharray:none"
       d="m 0.04866444,260.67141 c 97.62458856,0 372.05283556,0 372.05283556,0"
       id="path188" />
    <path
       style="fill:#999999;stroke:#999999;stroke-width:0.26458333;stroke-linecap:butt;stroke-linejoin:miter;stroke-opacity:1;stroke-miterlimit:4;stroke-dasharray:none"
       d="m 0.04866444,379.99849 c 97.62458856,0 372.05283556,0 372.05283556,0"
       id="path190" />
    <path
       style="fill:#999999;stroke:#999999;stroke-width:0.26458333;stroke-linecap:butt;stroke-linejoin:miter;stroke-opacity:1;stroke-miterlimit:4;stroke-dasharray:none"
       d="m 0.04866444,401.69432 c 97.62458856,0 372.05283556,0 372.05283556,0"
       id="path192" />
    <path
       style="fill:#999999;stroke:#999999;stroke-width:0.26458333;stroke-linecap:butt;stroke-linejoin:miter;stroke-opacity:1;stroke-miterlimit:4;stroke-dasharray:none"
       d="m 0.04866444,412.54224 c 97.62458856,0 372.05283556,0 372.05283556,0"
       id="path194" />
    <path
       style="fill:#999999;stroke:#999999;stroke-width:0.26458333;stroke-linecap:butt;stroke-linejoin:miter;stroke-opacity:1;stroke-miterlimit:4;stroke-dasharray:none"
       d="m 0.04866444,423.39015 c 97.62458856,0 372.05283556,0 372.05283556,0"
       id="path196" />
    <path
       style="fill:#999999;stroke:#999999;stroke-width:0.26458333;stroke-linecap:butt;stroke-linejoin:miter;stroke-opacity:1;stroke-miterlimit:4;stroke-dasharray:none"
       d="m 0.04866444,434.23807 c 97.62458856,0 372.05283556,0 372.05283556,0"
       id="path198" />
    <path
       style="fill:#999999;stroke:#999999;stroke-width:0.26458333;stroke-linecap:butt;stroke-linejoin:miter;stroke-opacity:1;stroke-miterlimit:4;stroke-dasharray:none"
       d="m 0.04866444,445.08599 c 97.62458856,0 372.05283556,0 372.05283556,0"
       id="path200" />
    <path
       style="fill:#999999;stroke:#999999;stroke-width:0.26458333;stroke-linecap:butt;stroke-linejoin:miter;stroke-opacity:1;stroke-miterlimit:4;stroke-dasharray:none"
       d="m 0.04866444,455.9339 c 97.62458856,0 372.05283556,0 372.05283556,0"
       id="path202" />
    <path
       style="fill:#999999;stroke:#999999;stroke-width:0.26458333;stroke-linecap:butt;stroke-linejoin:miter;stroke-opacity:1;stroke-miterlimit:4;stroke-dasharray:none"
       d="m 0.04866444,466.78182 c 97.62458856,0 372.05283556,0 372.05283556,0"
       id="path204" />
    <path
       style="fill:#999999;stroke:#999999;stroke-width:0.26458333;stroke-linecap:butt;stroke-linejoin:miter;stroke-opacity:1;stroke-miterlimit:4;stroke-dasharray:none"
       d="m 0.04866444,477.62973 c 97.62458856,0 372.05283556,0 372.05283556,0"
       id="path206" />
    <path
       style="fill:#999999;stroke:#999999;stroke-width:0.26458333;stroke-linecap:butt;stroke-linejoin:miter;stroke-opacity:1;stroke-miterlimit:4;stroke-dasharray:none"
       d="m 0.04866444,488.47765 c 97.62458856,0 372.05283556,0 372.05283556,0"
       id="path208" />
    <path
       style="fill:#999999;stroke:#999999;stroke-width:0.26458333;stroke-linecap:butt;stroke-linejoin:miter;stroke-opacity:1;stroke-miterlimit:4;stroke-dasharray:none"
       d="m 0.04866444,141.34433 c 97.62458856,0 372.05283556,0 372.05283556,0"
       id="path210" />
    <path
       style="fill:#666666;stroke:#999999;stroke-width:0.519121;stroke-linecap:butt;stroke-linejoin:miter;stroke-miterlimit:4;stroke-dasharray:none;stroke-opacity:1"
       d="M 39.647198,51.654633 H 331.3373"
       id="path1829" />
  </g>
</svg>
